<?xml version="1.0" encoding="UTF-8" standalone="no"?>
<!-- Created with Inkscape (http://www.inkscape.org/) -->

<svg
   xmlns:dc="http://purl.org/dc/elements/1.1/"
   xmlns:cc="http://creativecommons.org/ns#"
   xmlns:rdf="http://www.w3.org/1999/02/22-rdf-syntax-ns#"
   xmlns:svg="http://www.w3.org/2000/svg"
   xmlns="http://www.w3.org/2000/svg"
   xmlns:sodipodi="http://sodipodi.sourceforge.net/DTD/sodipodi-0.dtd"
   xmlns:inkscape="http://www.inkscape.org/namespaces/inkscape"
   width="48"
   height="48"
   viewBox="0 0 12.7 12.7"
   version="1.1"
   id="svg8"
   inkscape:version="0.92.4 (unknown)"
   sodipodi:docname="logo5.svg">
  <defs
     id="defs2" />
  <sodipodi:namedview
     id="base"
     pagecolor="#ffffff"
     bordercolor="#666666"
     borderopacity="1.0"
     inkscape:pageopacity="0.0"
     inkscape:pageshadow="2"
     inkscape:zoom="1.6584057"
     inkscape:cx="-74.145399"
     inkscape:cy="-23.442346"
     inkscape:document-units="px"
     inkscape:current-layer="layer1"
     showgrid="true"
     units="px"
     inkscape:lockguides="false"
     inkscape:window-width="1885"
     inkscape:window-height="1061"
     inkscape:window-x="1366"
     inkscape:window-y="0"
     inkscape:window-maximized="1"
     inkscape:snap-bbox="true"
     inkscape:bbox-paths="true"
     inkscape:bbox-nodes="true"
     inkscape:snap-global="false"
     fit-margin-top="0"
     fit-margin-left="0"
     fit-margin-right="0"
     fit-margin-bottom="0">
    <inkscape:grid
       type="xygrid"
       id="grid4569"
       originx="-27.091143"
       originy="-152.49762" />
    <sodipodi:guide
       position="9.3998883e-16,-40.216667"
       orientation="0,300"
       id="guide4571"
       inkscape:locked="false" />
    <sodipodi:guide
       position="79.374999,-40.216667"
       orientation="-200,0"
       id="guide4573"
       inkscape:locked="false" />
    <sodipodi:guide
       position="79.374999,12.7"
       orientation="0,-300"
       id="guide4575"
       inkscape:locked="false" />
    <sodipodi:guide
       position="9.3998883e-16,12.7"
       orientation="200,0"
       id="guide4577"
       inkscape:locked="false" />
  </sodipodi:namedview>
  <metadata
     id="metadata5">
    <rdf:RDF>
      <cc:Work
         rdf:about="">
        <dc:format>image/svg+xml</dc:format>
        <dc:type
           rdf:resource="http://purl.org/dc/dcmitype/StillImage" />
        <dc:title></dc:title>
      </cc:Work>
    </rdf:RDF>
  </metadata>
  <g
     inkscape:label="Layer 1"
     inkscape:groupmode="layer"
     id="layer1"
     transform="translate(0,-244.08333)">
    <path
       style="color:#000000;clip-rule:nonzero;display:inline;overflow:visible;visibility:visible;opacity:1;isolation:auto;mix-blend-mode:normal;color-interpolation:sRGB;color-interpolation-filters:linearRGB;solid-color:#000000;solid-opacity:1;fill:#82a689;fill-opacity:1;fill-rule:nonzero;stroke:none;stroke-width:0.28222221;stroke-linecap:butt;stroke-linejoin:miter;stroke-miterlimit:4;stroke-dasharray:none;stroke-dashoffset:0;stroke-opacity:1;color-rendering:auto;image-rendering:auto;shape-rendering:auto;text-rendering:auto;enable-background:accumulate"
       d="m 6.35,244.08333 a 6.3499999,6.3499999 0 0 0 -6.35,6.35 6.3499999,6.3499999 0 0 0 6.35,6.35 6.3499999,6.3499999 0 0 0 6.35,-6.35 6.3499999,6.3499999 0 0 0 -6.35,-6.35 z m 0.5467365,3.70003 c 0.087969,-0.007 0.1724584,0.0132 0.2532147,0.0594 0.107504,0.061 0.1775204,0.15069 0.2092894,0.26923 l 0.2578653,0.96274 -0.1369425,0.10903 -0.2764689,-1.03352 c -0.021363,-0.0772 -0.066632,-0.13522 -0.1359088,-0.17467 -0.070083,-0.0399 -0.1434611,-0.0495 -0.2201418,-0.0289 -0.077325,0.0207 -0.1365001,0.0658 -0.1772499,0.13539 -0.040261,0.0688 -0.050167,0.14064 -0.029973,0.21601 l 5.168e-4,0.003 0.258899,0.96583 -0.1364258,0.10904 -0.2764689,-1.03043 c -0.031769,-0.11856 -0.016103,-0.2314 0.046509,-0.33796 0.06244,-0.1072 0.1539033,-0.177 0.274402,-0.20929 0.030124,-0.008 0.05956,-0.0128 0.088883,-0.015 z m -0.775663,0.22014 -0.026355,0.1726 -0.2764689,0.0739 0.2981732,1.11259 0.344165,-0.092 -0.026355,0.1726 -0.7751463,0.20774 0.026355,-0.1726 0.2764689,-0.0744 -0.298173,-1.11208 -0.3441649,0.092 0.026355,-0.1726 z m -1.4960328,0.40773 c 0.073605,-0.006 0.1435307,0.011 0.2103231,0.0496 0.089056,0.0514 0.1456717,0.12138 0.1694987,0.21032 0.026936,0.10053 0.015505,0.195 -0.034623,0.28371 l -0.00413,0.007 c 0.037223,0.0101 0.073954,0.0257 0.1100709,0.047 0.1063879,0.062 0.1757966,0.15381 0.208256,0.27492 0.032116,0.11986 0.017009,0.23378 -0.044442,0.34209 -0.060333,0.10734 -0.1500245,0.17684 -0.2692344,0.20878 l -0.4376994,0.11782 -0.3627684,-1.35392 0.1364258,-0.10956 0.243396,-0.0651 c 0.025292,-0.007 0.050396,-0.0111 0.074931,-0.0129 z m 0.048059,0.1633 c -0.027569,-0.004 -0.055707,-0.002 -0.084232,0.005 l -0.2408121,0.0646 0.1059365,0.39533 0.2454632,-0.0662 c 0.065554,-0.0183 0.1100788,-0.0483 0.1333251,-0.0904 0.028264,-0.0517 0.034666,-0.10565 0.019637,-0.16175 -8.601e-4,-0.003 -0.00154,-0.007 -0.00258,-0.0103 -0.012423,-0.0464 -0.04434,-0.0832 -0.095601,-0.10955 -0.026613,-0.0143 -0.053563,-0.0232 -0.081132,-0.0269 z m 0.2206586,0.53485 c -0.036534,-0.005 -0.073798,-0.003 -0.1121378,0.008 l -0.037724,0.0103 -0.2485639,0.0667 0.1508953,0.56224 0.2862874,-0.0765 c 0.076681,-0.0205 0.1347507,-0.0658 0.1746663,-0.13591 0.039915,-0.0701 0.049478,-0.14349 0.028939,-0.22014 -0.020892,-0.078 -0.065945,-0.13716 -0.1353921,-0.17725 -0.034728,-0.0201 -0.070436,-0.0323 -0.1069702,-0.0372 z m 2.4479125,0.30231 c 0.088453,-0.007 0.1729068,0.0134 0.2526977,0.0599 0.1078492,0.0623 0.1773486,0.15196 0.2087729,0.26924 l 0.00258,0.009 -0.135909,0.11214 -0.022221,-0.0822 c -0.020547,-0.0767 -0.065816,-0.13474 -0.1359091,-0.17466 -0.070083,-0.0399 -0.143461,-0.0495 -0.2201415,-0.0289 -0.07797,0.0209 -0.1371446,0.0659 -0.1772502,0.13539 -0.040261,0.0688 -0.049651,0.14181 -0.028939,0.21911 l 0.1622639,0.60616 c 0.020547,0.0767 0.065427,0.13509 0.1348756,0.17519 0.069456,0.0401 0.1432055,0.0498 0.221175,0.0289 0.076681,-0.0205 0.1354841,-0.0657 0.1762167,-0.13539 0.040905,-0.069 0.050685,-0.14232 0.029972,-0.21962 l -0.0031,-0.0114 0.135909,-0.11369 0.021187,0.0801 c 0.031769,0.11857 0.016447,0.23179 -0.045992,0.339 -0.062613,0.10655 -0.1539033,0.17597 -0.2744017,0.20825 -0.1211427,0.0325 -0.23524,0.0182 -0.3420981,-0.0429 -0.1076767,-0.0616 -0.1775203,-0.15168 -0.2092894,-0.27027 l -0.1607137,-0.60048 c -0.031769,-0.11856 -0.01662,-0.23088 0.045992,-0.33744 0.062438,-0.10721 0.1539036,-0.17701 0.2744018,-0.20929 0.030447,-0.008 0.060433,-0.0138 0.089917,-0.016 z m -0.8392252,0.23719 -0.026355,0.17312 -0.49506,0.13229 0.1286743,0.47956 0.5622396,-0.1509 -0.025838,0.17312 -0.4950603,0.13229 0.1281576,0.47852 0.6883299,-0.18448 -0.026355,0.17311 -0.7751463,0.20774 -0.3632854,-1.35547 0.1369426,-0.10904 z m -1.3823448,0.37827 c 0.087969,-0.007 0.1724584,0.0132 0.2532148,0.0594 0.1075041,0.061 0.1770036,0.15069 0.2087726,0.26924 l 0.1508953,0.56223 c 0.031769,0.11856 0.016449,0.2318 -0.045992,0.339 -0.062612,0.10657 -0.1544206,0.17597 -0.2749187,0.20826 h -0.00103 l -0.4366659,0.1173 -0.3632854,-1.35547 0.1364258,-0.10904 0.2826703,-0.0754 5.167e-4,-5.2e-4 c 0.030125,-0.008 0.060077,-0.0128 0.0894,-0.015 z m 0.063046,0.15503 c -0.036691,-0.005 -0.074314,-0.002 -0.1126548,0.008 h -0.00103 l -0.2816365,0.0765 0.3012736,1.12603 0.28267,-0.0754 5.17e-4,-5.1e-4 c 0.076036,-0.0204 0.1348396,-0.0651 0.1762165,-0.13488 0.040923,-0.0689 0.051217,-0.14227 0.030489,-0.21962 l -0.1524455,-0.56844 c -0.020547,-0.0767 -0.065816,-0.13474 -0.135909,-0.17467 -0.035041,-0.0199 -0.070796,-0.0324 -0.107487,-0.0372 z m 2.8411701,0.74931 0.1555462,0.0305 -0.2087729,0.76791 0.5637898,0.55759 -0.1219563,0.1049 -0.4893757,-0.48524 -0.1813843,0.66508 -0.1581301,-0.03 0.2092897,-0.76482 -0.5643065,-0.56069 0.1188555,-0.10438 0.4935101,0.48834 z m -1.0877888,0.31213 -0.026355,0.1726 -0.4945435,0.1328 0.1281575,0.47904 0.5627563,-0.15037 -0.026355,0.1726 -0.4950602,0.1328 0.1281575,0.47853 0.6883299,-0.18449 -0.026355,0.1726 -0.7751466,0.20774 -0.3627684,-1.35495 0.1364258,-0.10956 z m -1.0412801,0.25838 0.3731037,1.39268 -0.1364258,0.10904 -0.1746662,-0.65216 -0.5627563,0.15038 0.1565796,0.58497 -0.1364258,0.10904 -0.3731038,-1.39268 0.1364256,-0.10904 0.1751832,0.65319 0.5622396,-0.15089 -0.1565796,-0.58549 z"
       id="path830"
       inkscape:connector-curvature="0" />
    <g
       aria-label="BIN"
       style="font-style:normal;font-weight:normal;font-size:6.14805841px;line-height:125%;font-family:sans-serif;letter-spacing:0px;word-spacing:0px;fill:#ffffff;fill-opacity:1;stroke:none;stroke-width:0.15370145px;stroke-linecap:butt;stroke-linejoin:miter;stroke-opacity:1"
       id="text834-8" />
    <g
       aria-label="DEC"
       style="font-style:normal;font-weight:normal;font-size:6.14805841px;line-height:125%;font-family:sans-serif;letter-spacing:0px;word-spacing:0px;fill:#ffffff;fill-opacity:1;stroke:none;stroke-width:0.15370147px;stroke-linecap:butt;stroke-linejoin:miter;stroke-opacity:1"
       id="text834-8-7" />
  </g>
</svg>
