<?xml version="1.0" encoding="UTF-8" standalone="no"?>
<!-- Created with Inkscape (http://www.inkscape.org/) -->

<svg
   xmlns:dc="http://purl.org/dc/elements/1.1/"
   xmlns:cc="http://creativecommons.org/ns#"
   xmlns:rdf="http://www.w3.org/1999/02/22-rdf-syntax-ns#"
   xmlns:svg="http://www.w3.org/2000/svg"
   xmlns="http://www.w3.org/2000/svg"
   xmlns:sodipodi="http://sodipodi.sourceforge.net/DTD/sodipodi-0.dtd"
   xmlns:inkscape="http://www.inkscape.org/namespaces/inkscape"
   width="11.107966mm"
   height="8.7084713mm"
   viewBox="0 0 11.107966 8.7084713"
   version="1.1"
   id="svg8"
   inkscape:version="0.92.4 (unknown)"
   sodipodi:docname="logo.svg">
  <defs
     id="defs2" />
  <sodipodi:namedview
     id="base"
     pagecolor="#ffffff"
     bordercolor="#666666"
     borderopacity="1.0"
     inkscape:pageopacity="0.0"
     inkscape:pageshadow="2"
     inkscape:zoom="12.614235"
     inkscape:cx="1089.8823"
     inkscape:cy="880.07993"
     inkscape:document-units="mm"
     inkscape:current-layer="layer1"
     showgrid="false"
     inkscape:window-width="1886"
     inkscape:window-height="1061"
     inkscape:window-x="1920"
     inkscape:window-y="0"
     inkscape:window-maximized="1"
     fit-margin-top="0"
     fit-margin-left="0"
     fit-margin-right="0"
     fit-margin-bottom="0"
     showguides="true"
     inkscape:guide-bbox="true">
    <sodipodi:guide
       position="-15.731254,-5.41804"
       orientation="1,0"
       id="guide912"
       inkscape:locked="false" />
    <sodipodi:guide
       position="-15.245441,-6.0438318"
       orientation="0,1"
       id="guide914"
       inkscape:locked="false" />
    <sodipodi:guide
       position="-9.1892588,-4.380543"
       orientation="1,0"
       id="guide917"
       inkscape:locked="false" />
    <sodipodi:guide
       position="97.171128,-51.016752"
       orientation="1,0"
       id="guide919"
       inkscape:locked="false" />
    <sodipodi:guide
       position="98.774948,-41.902981"
       orientation="1,0"
       id="guide921"
       inkscape:locked="false" />
    <sodipodi:guide
       position="106.53947,-46.33258"
       orientation="1,0"
       id="guide923"
       inkscape:locked="false" />
    <sodipodi:guide
       position="104.96111,-41.826608"
       orientation="1,0"
       id="guide925"
       inkscape:locked="false" />
  </sodipodi:namedview>
  <metadata
     id="metadata5">
    <rdf:RDF>
      <cc:Work
         rdf:about="">
        <dc:format>image/svg+xml</dc:format>
        <dc:type
           rdf:resource="http://purl.org/dc/dcmitype/StillImage" />
        <dc:title />
      </cc:Work>
    </rdf:RDF>
  </metadata>
  <g
     inkscape:label="Layer 1"
     inkscape:groupmode="layer"
     id="layer1"
     transform="translate(-5.5150683,-15.911196)">
    <text
       xml:space="preserve"
       style="font-style:normal;font-weight:normal;font-size:2.18901777px;line-height:1.25;font-family:sans-serif;letter-spacing:0px;word-spacing:0px;fill:#ff5555;fill-opacity:1;stroke:none;stroke-width:0.05472544"
       x="-29.430641"
       y="9.7920923"
       id="text819-9"><tspan
         sodipodi:role="line"
         id="tspan817-1"
         x="-29.430641"
         y="9.7920923"
         style="font-style:normal;font-variant:normal;font-weight:normal;font-stretch:normal;font-family:Play;-inkscape-font-specification:Play;fill:#ff5555;stroke-width:0.05472544;">01001010</tspan></text>
    <path
       style="fill:none;fill-opacity:1;stroke:#ac00ad;stroke-width:0.09015751;stroke-opacity:1"
       d="m -18.999276,8.228147 v 1.506111 c 0,0.278129 -0.223909,0.502038 -0.502038,0.502038 h -10.013734 c -0.278128,0 -0.502037,-0.223909 -0.502037,-0.502038 V 8.228147 c 0,-0.278129 0.223909,-0.502037 0.502037,-0.502037 h 10.013734 c 0.278129,0 0.502038,0.223908 0.502038,0.502037 z"
       id="rect815-8-6-1"
       inkscape:connector-curvature="0"
       sodipodi:nodetypes="sssssssss" />
    <text
       xml:space="preserve"
       style="font-style:normal;font-weight:normal;font-size:2.18901777px;line-height:1.25;font-family:sans-serif;letter-spacing:0px;word-spacing:0px;fill:#2a7fff;fill-opacity:1;stroke:none;stroke-width:0.05472544"
       x="-29.430641"
       y="12.828706"
       id="text819-9-3"><tspan
         sodipodi:role="line"
         id="tspan817-1-5"
         x="-29.430641"
         y="12.828706"
         style="font-style:normal;font-variant:normal;font-weight:normal;font-stretch:normal;font-family:Play;-inkscape-font-specification:Play;fill:#2a7fff;stroke-width:0.05472544;">29473623</tspan></text>
    <path
       style="fill:none;fill-opacity:1;stroke:#ac00ad;stroke-width:0.09015751;stroke-opacity:1"
       d="m -18.999276,11.264759 v 1.506111 c 0,0.278129 -0.223909,0.502038 -0.502038,0.502038 h -10.013734 c -0.278128,0 -0.502037,-0.223909 -0.502037,-0.502038 v -1.506111 c 0,-0.278129 0.223909,-0.502037 0.502037,-0.502037 h 10.013734 c 0.278129,0 0.502038,0.223908 0.502038,0.502037 z"
       id="rect815-8-6-1-9"
       inkscape:connector-curvature="0"
       sodipodi:nodetypes="sssssssss" />
    <text
       xml:space="preserve"
       style="font-style:normal;font-weight:normal;font-size:2.18901777px;line-height:1.25;font-family:sans-serif;letter-spacing:0px;word-spacing:0px;fill:#00d455;fill-opacity:1;stroke:none;stroke-width:0.05472544"
       x="-29.430641"
       y="15.900222"
       id="text819-9-34"><tspan
         sodipodi:role="line"
         id="tspan817-1-1"
         x="-29.430641"
         y="15.900222"
         style="font-style:normal;font-variant:normal;font-weight:normal;font-stretch:normal;font-family:Play;-inkscape-font-specification:Play;fill:#00d455;stroke-width:0.05472544;">A0F72DE9</tspan></text>
    <path
       style="fill:none;fill-opacity:1;stroke:#ac00ad;stroke-width:0.09015751;stroke-opacity:1"
       d="m -18.999276,14.336274 v 1.506112 c 0,0.278129 -0.223909,0.502038 -0.502038,0.502038 h -10.013734 c -0.278128,0 -0.502037,-0.223909 -0.502037,-0.502038 v -1.506112 c 0,-0.278128 0.223909,-0.502036 0.502037,-0.502036 h 10.013734 c 0.278129,0 0.502038,0.223908 0.502038,0.502036 z"
       id="rect815-8-6-1-5"
       inkscape:connector-curvature="0"
       sodipodi:nodetypes="sssssssss" />
    <ellipse
       style="fill:#b7d2d7;fill-opacity:1;stroke:none;stroke-width:0.26458332;stroke-opacity:0.41153846"
       id="path829"
       cx="-3.6527088"
       cy="8.4197845"
       rx="7.1164007"
       ry="7.2621932" />
    <text
       xml:space="preserve"
       style="font-style:normal;font-weight:normal;font-size:3.38170266px;line-height:1.25;font-family:sans-serif;letter-spacing:0px;word-spacing:0px;fill:#ac00ad;fill-opacity:1;stroke:none;stroke-width:0.08454257"
       x="-6.6539316"
       y="5.3176422"
       id="text833"
       transform="scale(0.90134565,1.1094523)"><tspan
         sodipodi:role="line"
         id="tspan831"
         x="-6.6539316"
         y="5.3176422"
         style="font-style:normal;font-variant:normal;font-weight:normal;font-stretch:normal;font-family:Play;-inkscape-font-specification:Play;fill:#ac00ad;fill-opacity:1;stroke-width:0.08454257;">bin</tspan></text>
    <text
       xml:space="preserve"
       style="font-style:normal;font-weight:normal;font-size:3.38170266px;line-height:1.25;font-family:sans-serif;letter-spacing:0px;word-spacing:0px;fill:#ac00ad;fill-opacity:1;stroke:none;stroke-width:0.08454257"
       x="-6.7885866"
       y="11.982336"
       id="text833-2"
       transform="scale(0.90134565,1.1094523)"><tspan
         sodipodi:role="line"
         id="tspan831-0"
         x="-6.7885866"
         y="11.982336"
         style="font-style:normal;font-variant:normal;font-weight:normal;font-stretch:normal;font-family:Play;-inkscape-font-specification:Play;fill:#ac00ad;fill-opacity:1;stroke-width:0.08454257;">hex</tspan></text>
    <text
       xml:space="preserve"
       style="font-style:normal;font-weight:normal;font-size:3.38170266px;line-height:1.25;font-family:sans-serif;letter-spacing:0px;word-spacing:0px;fill:#ac00ad;fill-opacity:1;stroke:none;stroke-width:0.08454257"
       x="-11.758612"
       y="8.9305363"
       id="text833-9"
       transform="scale(0.90134565,1.1094523)"><tspan
         sodipodi:role="line"
         id="tspan831-08"
         x="-11.758612"
         y="8.9305363"
         style="font-style:normal;font-variant:normal;font-weight:normal;font-stretch:normal;font-family:Play;-inkscape-font-specification:Play;fill:#ac00ad;fill-opacity:1;stroke-width:0.08454257;">--------</tspan></text>
    <path
       style="fill:#b7d2d7;fill-opacity:1;stroke:none;stroke-width:0.26458332;stroke-opacity:0.41153846"
       d="m -10.216186,30.663499 c 0,0 3.6904324,1.623526 6.5593809,2.820409 -1.0791806,2.609135 -3.6096321,4.440353 -6.5592009,4.440353 -3.93028,0 -7.116401,-3.251395 -7.116401,-7.262194 0,-4.010799 3.186122,-7.262193 7.116401,-7.262193 2.9322724,0 5.4503285,1.809804 6.5400663,4.394533 -2.2804861,0.978529 -6.5402463,2.869092 -6.5402463,2.869092 z"
       id="path829-3"
       inkscape:connector-curvature="0"
       sodipodi:nodetypes="ccssscc" />
    <text
       xml:space="preserve"
       style="font-style:normal;font-weight:normal;font-size:3.38170266px;line-height:1.25;font-family:sans-serif;letter-spacing:0px;word-spacing:0px;fill:#ac00ad;fill-opacity:1;stroke:none;stroke-width:0.08454257"
       x="-8.3876619"
       y="25.318676"
       id="text833-8"
       transform="scale(0.90134565,1.1094523)"><tspan
         sodipodi:role="line"
         id="tspan831-7"
         x="-8.3876619"
         y="25.318676"
         style="font-style:normal;font-variant:normal;font-weight:normal;font-stretch:normal;font-family:Play;-inkscape-font-specification:Play;fill:#ac00ad;fill-opacity:1;stroke-width:0.08454257;">0</tspan></text>
    <text
       xml:space="preserve"
       style="font-style:normal;font-weight:normal;font-size:5.17695665px;line-height:1.25;font-family:sans-serif;letter-spacing:0px;word-spacing:0px;fill:#ac00ad;fill-opacity:1;stroke:none;stroke-width:0.12942395"
       x="-18.007774"
       y="29.565004"
       id="text833-2-3"
       transform="scale(0.90134565,1.1094523)"><tspan
         sodipodi:role="line"
         id="tspan831-0-1"
         x="-18.007774"
         y="29.565004"
         style="font-style:normal;font-variant:normal;font-weight:normal;font-stretch:normal;font-family:Play;-inkscape-font-specification:Play;fill:#ac00ad;fill-opacity:1;stroke-width:0.12942395;">0100</tspan></text>
    <ellipse
       style="fill:#b7d2d7;fill-opacity:1;stroke:none;stroke-width:0.26458332;stroke-opacity:0.41153846"
       id="path829-31"
       cx="17.569796"
       cy="38.452961"
       rx="7.1164007"
       ry="7.2621937" />
    <path
       style="fill:#ac00ad;fill-opacity:1;stroke:none;stroke-width:0.04738104;stroke-opacity:1"
       d="m 19.747331,34.476169 v 0.961039 h -5.709416 v 0.813899 h 5.709416 v 0.961039 l 1.368036,-1.367942 z"
       id="rect952"
       inkscape:connector-curvature="0" />
    <path
       style="fill:#ac00ad;fill-opacity:1;stroke:none;stroke-width:0.04738104;stroke-opacity:1"
       d="m 19.747331,40.141232 v 0.961039 h -5.709416 v 0.813899 h 5.709416 v 0.961039 l 1.368036,-1.367942 z"
       id="rect952-8"
       inkscape:connector-curvature="0" />
    <path
       style="fill:#ac00ad;fill-opacity:1;stroke:none;stroke-width:0.04738104;stroke-opacity:1"
       d="m 15.128877,40.071964 v -0.961039 h 5.709416 v -0.813899 h -5.709416 v -0.961039 l -1.368036,1.367942 z"
       id="rect952-0"
       inkscape:connector-curvature="0" />
    <text
       xml:space="preserve"
       style="font-style:normal;font-weight:normal;font-size:3.38170266px;line-height:1.25;font-family:sans-serif;letter-spacing:0px;word-spacing:0px;fill:#ac00ad;fill-opacity:1;stroke:none;stroke-width:0.08454257"
       x="18.746069"
       y="36.112576"
       id="text833-8-1"
       transform="scale(0.90134565,1.1094523)"><tspan
         sodipodi:role="line"
         id="tspan831-7-7"
         x="18.746069"
         y="36.112576"
         style="font-style:normal;font-variant:normal;font-weight:normal;font-stretch:normal;font-family:Play;-inkscape-font-specification:Play;fill:#ac00ad;fill-opacity:1;stroke-width:0.08454257;">0</tspan></text>
    <ellipse
       style="fill:#b7d2d7;fill-opacity:1;stroke:none;stroke-width:0.26458332;stroke-opacity:0.41153846"
       id="path829-31-9"
       cx="34.973217"
       cy="54.631184"
       rx="7.1164007"
       ry="7.2621942" />
    <rect
       style="fill:#ac00ad;fill-opacity:1;stroke:none;stroke-width:0.25749013;stroke-opacity:1"
       id="rect4722"
       width="12.421841"
       height="0.64093482"
       x="-34.422894"
       y="58.400467"
       transform="rotate(-58.468622)" />
    <text
       xml:space="preserve"
       style="font-style:normal;font-weight:normal;font-size:3.38170266px;line-height:1.25;font-family:sans-serif;letter-spacing:0px;word-spacing:0px;fill:#ac00ad;fill-opacity:1;stroke:none;stroke-width:0.08454257"
       x="-1.5991639"
       y="32.946453"
       id="text833-8-5"
       transform="scale(0.90134565,1.1094523)"><tspan
         sodipodi:role="line"
         id="tspan831-7-2"
         x="-1.5991639"
         y="32.946453"
         style="font-style:normal;font-variant:normal;font-weight:normal;font-stretch:normal;font-family:Manjari;-inkscape-font-specification:Manjari;fill:#ac00ad;fill-opacity:1;stroke-width:0.08454257">0</tspan></text>
    <path
       style="fill:#ac00ad;fill-opacity:1;stroke:none;stroke-width:0.26458332;stroke-opacity:1"
       d="m 35.208274,51.634529 a 3.0708959,3.0708959 0 0 0 -3.071131,3.070614 3.0708959,3.0708959 0 0 0 3.071131,3.071129 3.0708959,3.0708959 0 0 0 3.070613,-3.071129 3.0708959,3.0708959 0 0 0 -3.070613,-3.070614 z m 0,0.761711 a 2.3089442,2.3089442 0 0 1 2.308903,2.308903 2.3089442,2.3089442 0 0 1 -2.308903,2.308902 2.3089442,2.3089442 0 0 1 -2.308903,-2.308902 2.3089442,2.3089442 0 0 1 2.308903,-2.308903 z"
       id="path4742"
       inkscape:connector-curvature="0" />
    <rect
       style="fill:#ececec;fill-opacity:1;stroke:#000000;stroke-width:0.26458333;stroke-opacity:1;stroke-miterlimit:4;stroke-dasharray:none"
       id="rect855"
       width="20.000906"
       height="20.000906"
       x="10.80613"
       y="72.032532" />
    <ellipse
       style="fill:#b7d2d7;fill-opacity:1;stroke:#000000;stroke-width:0.26458333;stroke-opacity:1;stroke-miterlimit:4;stroke-dasharray:none"
       id="path829-31-9-3"
       cx="20.806583"
       cy="117.41404"
       rx="26.803272"
       ry="27.35239" />
    <ellipse
       style="fill:#b7d2d7;fill-opacity:1;stroke:#000000;stroke-width:0.26458333;stroke-opacity:1;stroke-miterlimit:4;stroke-dasharray:none"
       id="path829-31-9-3-6"
       cx="3.473969"
       cy="52.422264"
       rx="33.409313"
       ry="34.093769" />
    <path
       inkscape:connector-curvature="0"
       style="fill:#ececec;fill-opacity:1;stroke:#000000;stroke-width:0.26458332;stroke-miterlimit:4;stroke-dasharray:none;stroke-opacity:1"
       d="m 126.56962,59.06794 h 20.0009 v 20.000903 h -20.0009 z"
       id="rect855-7-5" />
    <path
       inkscape:connector-curvature="0"
       style="fill:#b7d2d7;fill-opacity:1;stroke:#000000;stroke-width:0.26458332;stroke-miterlimit:4;stroke-dasharray:none;stroke-opacity:1"
       d="m 126.56617,79.065803 c 3.09107,-1.26984 6.4675,-1.96874 10.0039,-1.96874 3.53047,0 6.90152,0.69656 9.98838,1.96236"
       id="path917-6" />
    <path
       inkscape:connector-curvature="0"
       style="fill:#b7d2d7;fill-opacity:1;stroke:#000000;stroke-width:0.26458332;stroke-miterlimit:4;stroke-dasharray:none;stroke-opacity:1"
       d="m 146.52699,59.130751 c -4.70172,6.7796 -11.76834,11.730244 -19.97385,13.600812"
       id="path829-31-9-3-6-3-2" />
    <path
       id="rect855-7-9-1-2-7-3"
       style="fill:#ececec;fill-opacity:1;stroke:#000000;stroke-width:0.26458332;stroke-miterlimit:4;stroke-dasharray:none;stroke-opacity:1"
       d="m 143.55336,107.4156 c 1.08421,-0.11702 2.15257,-0.19105 3.19379,-0.19466 1.0107,0 2.00833,0.0571 2.98888,0.13678 l 3.4e-4,-10.742611 c -1.90867,1.525069 -3.9817,2.815253 -6.18672,3.844411 z m -1.60691,-6.23411 c -1.67434,0.70622 -3.41779,1.26404 -5.20784,1.67854 l 0.006,6.33117 c 1.69948,-0.65929 3.45808,-1.16138 5.20389,-1.5293 z m 14.79515,8.00652 -0.0156,-19.964788 c -1.57401,2.269841 -3.3842,4.308893 -5.41039,6.08705 l 5.1e-4,12.305058 c 1.88253,0.33157 3.6953,0.86098 5.42548,1.57268 z"
       inkscape:connector-curvature="0"
       sodipodi:nodetypes="cccccccccccccccc" />
    <path
       id="rect855-7-9-1-2-7-0-6"
       style="fill:#ececec;fill-opacity:1;stroke:#000000;stroke-width:0.11309387;stroke-miterlimit:4;stroke-dasharray:none;stroke-opacity:1"
       d="m 140.47285,103.54128 c -0.71568,0.30186 -1.4609,0.5403 -2.22604,0.71748 l 0.003,2.7062 c 0.72642,-0.28181 1.47811,-0.49642 2.22435,-0.65369 z"
       inkscape:connector-curvature="0"
       sodipodi:nodetypes="ccccc" />
    <path
       id="rect855-7-9-1-2-7-9-0"
       style="fill:#ececec;fill-opacity:1;stroke:#000000;stroke-width:0.11809399;stroke-miterlimit:4;stroke-dasharray:none;stroke-opacity:1"
       d="m 145.25398,105.22132 c 0.48393,-0.0522 0.96077,-0.0853 1.42551,-0.0869 0.45111,0 0.89639,0.0255 1.33405,0.0611 l 1.7e-4,-4.79485 c -0.85193,0.68069 -1.77721,1.25655 -2.76138,1.71591 z"
       inkscape:connector-curvature="0"
       sodipodi:nodetypes="cccccc" />
    <ellipse
       style="fill:#b7d2d7;fill-opacity:1;stroke:#000000;stroke-width:0.18033643;stroke-miterlimit:4;stroke-dasharray:none;stroke-opacity:1"
       id="path829-31-9-3-62"
       cx="208.00058"
       cy="94.803207"
       rx="18.268751"
       ry="18.643021" />
    <path
       id="rect855-7-9-1-2-7"
       style="fill:#000080;fill-opacity:1;stroke:#000000;stroke-width:0.26458332;stroke-miterlimit:4;stroke-dasharray:none;stroke-opacity:1"
       d="m 218.002,104.8987 -0.0156,-19.964789 c -1.57401,2.269841 -3.3842,4.308893 -5.41039,6.08705 l 4.9e-4,12.305059 c 1.88253,0.33157 3.6953,0.86098 5.42548,1.57268 z m -14.7949,-8.00674 c -1.67435,0.706218 -3.4179,1.264465 -5.20795,1.678966 l 0.006,6.330884 c 1.69947,-0.65929 3.458,-1.16119 5.20381,-1.52911 z m -1.47381,2.360062 10e-4,2.769858 c -0.74624,0.15727 -1.49824,0.3719 -2.22467,0.65371 l -0.003,-2.706299 c 0.76514,-0.177175 1.51054,-0.415401 2.22623,-0.717269 z m 9.26351,-6.926191 c -1.90867,1.525069 -3.98169,2.815055 -6.1867,3.84421 l 0.004,6.956159 c 1.08421,-0.11702 2.15238,-0.1912 3.1936,-0.19482 1.01069,0 2.00842,0.0573 2.98897,0.13695 z m -1.72289,3.785298 v 4.795061 c -0.43766,-0.0356 -0.88266,-0.061 -1.33377,-0.061 -0.46474,0.002 -0.94183,0.0346 -1.42575,0.0868 l -0.002,-3.104723 c 0.98418,-0.459354 1.90915,-1.035476 2.76107,-1.716175 z"
       inkscape:connector-curvature="0" />
    <ellipse
       style="fill:#b7d2d7;fill-opacity:1;stroke:none;stroke-width:0.18033643;stroke-miterlimit:4;stroke-dasharray:none;stroke-opacity:1"
       id="path829-31-9-3-62-6"
       cx="193.92957"
       cy="44.868217"
       rx="18.268751"
       ry="18.643021" />
    <path
       id="rect855-7-9-1-2-7-1"
       style="fill:#a62d3b;fill-opacity:1;stroke:#ca2020;stroke-width:0.02645833;stroke-miterlimit:4;stroke-dasharray:none;stroke-opacity:1"
       d="m 203.40181,54.434541 -0.0156,-19.96479 c -1.574,2.26984 -3.38419,4.3089 -5.41038,6.08705 l 5e-4,12.30506 c 1.88253,0.33157 3.6953,0.86098 5.42548,1.57268 z m -14.7949,-8.00674 c -1.67435,0.70622 -3.4179,1.26447 -5.20795,1.67897 l 0.006,6.33088 c 1.69947,-0.65929 3.458,-1.16119 5.20381,-1.52911 z m -1.47381,2.36006 10e-4,2.76986 c -0.74624,0.15727 -1.49824,0.3719 -2.22467,0.65371 l -0.003,-2.7063 c 0.76514,-0.17717 1.51054,-0.4154 2.22623,-0.71727 z m 9.26351,-6.92619 c -1.90867,1.52507 -3.98169,2.81506 -6.1867,3.84421 l 0.004,6.95616 c 1.08421,-0.11702 2.15238,-0.1912 3.1936,-0.19482 1.01069,0 2.00842,0.0573 2.98897,0.13695 z m -1.72289,3.7853 v 4.79506 c -0.43766,-0.0356 -0.88266,-0.061 -1.33377,-0.061 -0.46474,0.002 -0.94183,0.0346 -1.42575,0.0868 l -0.002,-3.223442 c 0.98418,-0.45935 1.90915,-0.916758 2.76107,-1.597458 z"
       inkscape:connector-curvature="0"
       sodipodi:nodetypes="ccccccccccccccccccccccccccccc" />
    <ellipse
       style="fill:#b7d2d7;fill-opacity:1;stroke:none;stroke-width:0.06314199;stroke-miterlimit:4;stroke-dasharray:none;stroke-opacity:1"
       id="path829-31-9-3-62-6-8"
       cx="246.76372"
       cy="-78.215042"
       rx="6.3965178"
       ry="6.5275621" />
    <path
       id="rect855-7-9-1-2-7-1-7"
       style="fill:#a62d3b;fill-opacity:1;stroke:#ca2020;stroke-width:0.00926397;stroke-miterlimit:4;stroke-dasharray:none;stroke-opacity:1"
       d="m 250.08028,-74.243165 -0.005,-6.990359 c -0.55111,0.794749 -1.18492,1.508694 -1.89436,2.131286 l 1.7e-4,4.308424 c 0.65914,0.116095 1.29386,0.30146 1.89965,0.550649 z m -5.18021,-2.803434 c -0.58624,0.247271 -1.19672,0.442734 -1.82348,0.587865 l 0.002,2.216659 c 0.59505,-0.230841 1.21077,-0.406573 1.82204,-0.535394 z m -0.51603,0.826338 3.5e-4,0.969823 c -0.26128,0.05507 -0.52458,0.130215 -0.77893,0.228886 l -0.001,-0.947568 c 0.2679,-0.06203 0.52889,-0.145446 0.77948,-0.251141 z m 3.24348,-2.425098 c -0.6683,0.53398 -1.39413,0.98565 -2.16618,1.345991 l 0.001,2.43559 c 0.37962,-0.04097 0.75362,-0.06694 1.11819,-0.06821 0.35388,0 0.70322,0.02006 1.04654,0.04795 z m -0.60325,1.325364 v 1.678915 c -0.15324,-0.01246 -0.30905,-0.02136 -0.467,-0.02136 -0.16272,7.01e-4 -0.32976,0.01212 -0.4992,0.03039 l -7e-4,-1.128638 c 0.3446,-0.160834 0.66846,-0.320988 0.96675,-0.559325 z"
       inkscape:connector-curvature="0"
       sodipodi:nodetypes="ccccccccccccccccccccccccccccc" />
    <circle
       style="fill:#b7d2d7;fill-opacity:1;stroke:none;stroke-width:0.02466596;stroke-miterlimit:4;stroke-dasharray:none;stroke-opacity:1"
       id="path1153"
       cx="292.49249"
       cy="-207.66541"
       r="6.3499999" />
    <path
       id="rect855-7-9-1-2-7-1-7-9"
       style="fill:#a62d3b;fill-opacity:1;stroke:#ca2020;stroke-width:0.00926397;stroke-miterlimit:4;stroke-dasharray:none;stroke-opacity:1"
       d="m 295.73025,-204.32693 -0.005,-6.99036 c -0.55111,0.79475 -1.18492,1.50869 -1.89436,2.13129 l 1.7e-4,4.30842 c 0.65914,0.1161 1.29386,0.30146 1.89965,0.55065 z m -5.18021,-2.80343 c -0.58624,0.24727 -1.19672,0.44273 -1.82348,0.58786 l 0.002,2.21666 c 0.59505,-0.23084 1.21077,-0.40657 1.82204,-0.53539 z m -0.51603,0.82633 3.5e-4,0.96983 c -0.26128,0.0551 -0.52458,0.13021 -0.77893,0.22888 l -10e-4,-0.94757 c 0.2679,-0.062 0.52889,-0.14544 0.77948,-0.25114 z m 3.24348,-2.42509 c -0.6683,0.53398 -1.39413,0.98565 -2.16618,1.34599 l 10e-4,2.43559 c 0.37962,-0.041 0.75362,-0.0669 1.11819,-0.0682 0.35388,0 0.70322,0.0201 1.04654,0.0479 z m -0.60325,1.32536 v 1.67891 c -0.15324,-0.0125 -0.30905,-0.0214 -0.467,-0.0214 -0.16272,6.9e-4 -0.32976,0.0121 -0.4992,0.0304 l -6.8e-4,-1.12863 c 0.3446,-0.16084 0.66846,-0.32099 0.96675,-0.55933 z"
       inkscape:connector-curvature="0"
       sodipodi:nodetypes="ccccccccccccccccccccccccccccc" />
  </g>
</svg>
