<svg xmlns="http://www.w3.org/2000/svg" height="48" width="48"><path d="M24 .006C10.747.006 0 10.75 0 24c0 13.25 10.747 23.994 24 23.994S48 37.25 48 24C48 10.75 37.253.006 24 .006zm2.066 13.98c.333-.026.652.05.957.225.407.23.671.57.791 1.018l.975 3.637-.518.412-1.044-3.905a1.055 1.055 0 0 0-.514-.66 1.064 1.064 0 0 0-.832-.11 1.07 1.07 0 0 0-.67.513c-.152.26-.19.53-.113.816l.002.011.978 3.65-.515.412-1.045-3.894c-.12-.448-.061-.874.175-1.277a1.65 1.65 0 0 1 1.037-.79c.114-.031.226-.05.336-.058zm-2.931.833l-.1.652-1.045.28 1.127 4.203 1.301-.348-.1.653-2.93.785.1-.653 1.045-.28-1.127-4.203-1.3.348.1-.652 2.929-.785zm-5.655 1.54a1.34 1.34 0 0 1 .795.188c.337.194.551.458.641.794.102.38.059.737-.13 1.072l-.017.027c.141.038.28.097.417.177.402.235.664.582.787 1.04.121.452.064.883-.168 1.292a1.596 1.596 0 0 1-1.018.789l-1.654.445-1.371-5.116.515-.414.92-.246c.096-.026.19-.042.284-.049v.001zm.182.617a.83.83 0 0 0-.318.02l-.91.243.4 1.494.928-.25c.247-.07.416-.183.504-.342a.799.799 0 0 0 .074-.61l-.01-.04c-.047-.175-.167-.314-.361-.414a.897.897 0 0 0-.307-.101zm.834 2.021a1.018 1.018 0 0 0-.424.03l-.142.04-.94.252.57 2.124 1.083-.29c.29-.076.509-.248.66-.513.15-.265.187-.542.11-.832a1.06 1.06 0 0 0-.513-.67 1.09 1.09 0 0 0-.404-.14zm9.252 1.143c.334-.027.654.05.955.226.408.235.67.574.79 1.017l.009.034-.514.424-.084-.31a1.044 1.044 0 0 0-.513-.66 1.064 1.064 0 0 0-.832-.11 1.06 1.06 0 0 0-.67.512c-.152.26-.188.536-.11.828l.614 2.29c.077.29.247.51.51.662.262.152.54.188.835.11.29-.078.512-.249.666-.512a1.04 1.04 0 0 0 .114-.83l-.012-.043.514-.43.08.303c.12.448.062.876-.174 1.28a1.655 1.655 0 0 1-1.037.788 1.65 1.65 0 0 1-1.293-.162 1.618 1.618 0 0 1-.791-1.021l-.608-2.27a1.602 1.602 0 0 1 .174-1.275 1.65 1.65 0 0 1 1.037-.79c.115-.03.229-.053.34-.06v-.001zm-3.172.896l-.1.654-1.87.5.486 1.812 2.125-.57-.098.654-1.871.5.484 1.808 2.602-.697-.1.654-2.93.785-1.372-5.122.517-.412 2.127-.566zm-5.224 1.43c.332-.027.651.05.957.224.406.23.669.57.789 1.017l.57 2.124c.12.448.062.876-.174 1.281a1.658 1.658 0 0 1-1.039.787h-.004l-1.65.444-1.373-5.122.515-.412 1.069-.285.002-.002c.114-.03.227-.048.338-.057zm.238.585a1.092 1.092 0 0 0-.426.03h-.004l-1.064.29 1.138 4.254 1.069-.285.002-.002c.287-.077.51-.246.666-.51.154-.26.193-.537.115-.83l-.576-2.147a1.044 1.044 0 0 0-.514-.66 1.112 1.112 0 0 0-.406-.14zm10.738 2.831l.588.116-.789 2.901 2.13 2.107-.46.396-1.85-1.833-.685 2.513-.598-.113.791-2.89-2.133-2.119.45-.394 1.865 1.845.691-2.529zm-4.111 1.18l-.1.652-1.869.502.484 1.81 2.127-.568-.1.652-1.87.502.484 1.808 2.602-.697-.1.652-2.93.785-1.37-5.12.515-.414 2.127-.564zm-3.936.976l1.41 5.262-.515.413-.66-2.465-2.127.569.591 2.21-.515.412-1.41-5.262.515-.413.662 2.469 2.125-.57-.591-2.213.515-.412z" fill="#82a689"/></svg>